<svg width="31" height="45" viewBox="0 0 31 45" fill="none" xmlns="http://www.w3.org/2000/svg">
<path d="M15.5 21.375C14.0318 21.375 12.6238 20.7824 11.5857 19.7275C10.5475 18.6726 9.96429 17.2418 9.96429 15.75C9.96429 14.2582 10.5475 12.8274 11.5857 11.7725C12.6238 10.7176 14.0318 10.125 15.5 10.125C16.9682 10.125 18.3762 10.7176 19.4143 11.7725C20.4525 12.8274 21.0357 14.2582 21.0357 15.75C21.0357 16.4887 20.8925 17.2201 20.6143 17.9026C20.3361 18.5851 19.9284 19.2051 19.4143 19.7275C18.9003 20.2498 18.2901 20.6641 17.6184 20.9468C16.9468 21.2295 16.227 21.375 15.5 21.375ZM15.5 0C11.3891 0 7.44666 1.65937 4.53985 4.61307C1.63303 7.56677 0 11.5728 0 15.75C0 27.5625 15.5 45 15.5 45C15.5 45 31 27.5625 31 15.75C31 11.5728 29.367 7.56677 26.4602 4.61307C23.5533 1.65937 19.6109 0 15.5 0Z" fill="#9D7230"/>
</svg>
