<svg width="1093" height="659" viewBox="0 0 1093 659" fill="none" xmlns="http://www.w3.org/2000/svg">
<path d="M1093 282.657V659H699.934L0 0L1093 282.657ZM742.674 433.658C723.663 433.658 708.852 439.485 698.24 451.139C687.628 462.792 682.322 479.101 682.322 500.064C682.322 522.2 687.661 539.485 698.338 551.92C709.015 564.29 723.891 570.475 742.967 570.475C755.467 570.475 766.242 567.675 775.291 562.076C784.34 556.477 791.242 548.404 795.994 537.857C800.747 527.376 803.123 514.778 803.123 500.064C803.123 479.101 797.817 462.792 787.205 451.139C776.593 439.485 761.749 433.658 742.674 433.658ZM817.088 449.869V475.064H833.104V536.197L824.314 536.002V567.838H891.697V536.197H882.322L881.736 433.658L817.088 449.869ZM742.967 470.67C746.157 470.67 748.631 471.647 750.389 473.6C752.211 475.553 753.514 478.841 754.295 483.463C755.011 488.281 755.369 494.726 755.369 502.799C755.369 509.309 755.011 515.071 754.295 520.084C753.644 525.097 752.309 528.71 750.291 530.924C748.468 532.877 745.864 533.853 742.479 533.854C739.289 533.854 736.749 532.877 734.861 530.924C733.038 528.971 731.736 525.748 730.955 521.256C730.109 517.024 729.686 510.806 729.686 502.604C729.686 495.833 730.011 489.876 730.662 484.732C731.378 479.524 732.843 475.813 735.057 473.6C736.945 471.646 739.581 470.67 742.967 470.67Z" fill="#9D7230"/>
</svg>
