<svg width="1090" height="656" viewBox="0 0 1090 656" fill="none" xmlns="http://www.w3.org/2000/svg">
<path fill-rule="evenodd" clip-rule="evenodd" d="M1089.5 282.5L0 0L697 656H1089.5V282.5ZM708.949 592.082C719.626 604.452 734.503 610.637 753.578 610.637C766.078 610.637 776.853 607.837 785.902 602.238C794.952 596.639 801.853 588.566 806.605 578.02C811.358 567.538 813.734 554.94 813.734 540.227C813.734 519.263 808.428 502.954 797.816 491.301C787.204 479.647 772.361 473.82 753.285 473.82C734.275 473.82 719.464 479.647 708.852 491.301C698.24 502.954 692.934 519.263 692.934 540.227C692.934 562.362 698.272 579.647 708.949 592.082ZM764.906 523.625C765.622 528.443 765.98 534.888 765.98 542.961C765.98 549.471 765.622 555.233 764.906 560.246C764.255 565.259 762.921 568.872 760.902 571.086C759.079 573.039 756.475 574.016 753.09 574.016C749.9 574.016 747.361 573.039 745.473 571.086C743.65 569.133 742.348 565.91 741.566 561.418C740.72 557.186 740.297 550.969 740.297 542.766C740.297 535.995 740.622 530.038 741.273 524.895C741.99 519.686 743.454 515.975 745.668 513.762C747.556 511.809 750.193 510.832 753.578 510.832C756.768 510.832 759.242 511.809 761 513.762C762.823 515.715 764.125 519.003 764.906 523.625ZM832.094 608H943.715L943.129 562.59H926.332C926.332 568.319 924.411 572.128 920.57 574.016C916.794 575.904 911.716 576.913 905.336 577.043H889.516L893.324 574.406C900.616 569.068 907.094 563.924 912.758 558.977C918.422 554.029 923.565 547.941 928.188 540.715C932.81 533.553 935.121 525.969 935.121 517.961C935.121 509.432 932.875 501.815 928.383 495.109C923.956 488.339 917.771 483.098 909.828 479.387C901.951 475.676 892.901 473.82 882.68 473.82C872.003 473.82 862.497 475.611 854.164 479.191C845.831 482.772 839.385 487.72 834.828 494.035C830.336 500.155 828.09 507.186 828.09 515.129V517.473C828.09 523.267 829.327 529.191 831.801 535.246C834.535 541.887 838.181 547.193 842.738 551.164L864.711 534.172C863.083 532.609 861.651 530.656 860.414 528.312C859.242 525.969 858.656 523.658 858.656 521.379C858.656 517.408 859.796 514.12 862.074 511.516C864.353 508.911 867.576 507.609 871.742 507.609C875.453 507.609 878.643 509.237 881.312 512.492C883.982 515.747 885.316 519.719 885.316 524.406C885.316 529.224 884.568 533.521 883.07 537.297C881.638 541.073 879.327 544.784 876.137 548.43C872.947 552.076 868.747 556.145 863.539 560.637C854.815 567.798 844.333 573.723 832.094 578.41V608Z" fill="#9D7230"/>
</svg>
