<svg width="43" height="43" viewBox="0 0 43 43" fill="none" xmlns="http://www.w3.org/2000/svg">
<path d="M40.5201 27.867L30.7849 23.5028L30.7477 23.4863C30.1149 23.2135 29.4238 23.1036 28.7377 23.1668C28.0515 23.23 27.3921 23.4642 26.8198 23.848C26.7395 23.9018 26.6622 23.9597 26.5882 24.0217L21.976 27.9497C19.2884 26.4922 16.5119 23.7385 15.0524 21.084L18.9928 16.3994C19.0561 16.3238 19.1148 16.2444 19.1685 16.1616C19.5422 15.5914 19.7691 14.9375 19.829 14.2583C19.8889 13.5791 19.7799 12.8957 19.5117 12.2688C19.5053 12.2568 19.4998 12.2444 19.4951 12.2316L15.133 2.47991C14.775 1.66439 14.1639 0.985813 13.3902 0.544602C12.6165 0.103391 11.7213 -0.0770079 10.8371 0.0301025C7.83604 0.424333 5.08113 1.89749 3.08685 4.17443C1.09258 6.45137 -0.00467553 9.37639 1.4976e-05 12.4032C1.4976e-05 29.2748 13.7252 43 30.5968 43C33.6236 43.0047 36.5486 41.9074 38.8256 39.9131C41.1025 37.9189 42.5757 35.164 42.9699 32.1629C43.077 31.2787 42.8966 30.3835 42.4554 29.6098C42.0142 28.8361 41.3356 28.225 40.5201 27.867ZM30.5968 38.0383C23.8005 38.0301 17.2848 35.3267 12.4791 30.5209C7.67334 25.7152 4.96986 19.1995 4.96166 12.4032C4.95692 10.6904 5.53841 9.02752 6.6095 7.69091C7.68059 6.35431 9.17679 5.42444 10.8495 5.05583L14.7402 13.7387L10.7792 18.4564C10.7152 18.5327 10.6558 18.6128 10.6014 18.6962C10.211 19.2928 9.98143 19.9801 9.93506 20.6915C9.8887 21.403 10.0271 22.1143 10.3368 22.7565C12.2842 26.7423 16.2969 30.7282 20.3241 32.6798C20.9706 32.9862 21.6855 33.1197 22.399 33.0672C23.1125 33.0146 23.8002 32.7779 24.3948 32.38C24.4747 32.3261 24.5513 32.2674 24.6242 32.2043L29.2613 28.2618L37.9442 32.1505C37.5756 33.8232 36.6457 35.3194 35.3091 36.3905C33.9725 37.4616 32.3096 38.0431 30.5968 38.0383Z" fill="#9D7230"/>
</svg>
