<svg width="44" height="44" viewBox="0 0 44 44" fill="none" xmlns="http://www.w3.org/2000/svg">
<path d="M22 0C34.1506 0 44 9.8494 44 22C44 34.1506 34.1506 44 22 44C9.8494 44 0 34.1506 0 22C0 9.8494 9.8494 0 22 0ZM22 8.8C21.4165 8.8 20.8569 9.03179 20.4444 9.44437C20.0318 9.85695 19.8 10.4165 19.8 11V22C19.8001 22.5834 20.032 23.1429 20.4446 23.5554L27.0446 30.1554C27.4595 30.5561 28.0152 30.7779 28.5921 30.7729C29.1689 30.7679 29.7207 30.5365 30.1286 30.1286C30.5365 29.7207 30.7679 29.1689 30.7729 28.5921C30.7779 28.0152 30.5561 27.4595 30.1554 27.0446L24.2 21.0892V11C24.2 10.4165 23.9682 9.85695 23.5556 9.44437C23.1431 9.03179 22.5835 8.8 22 8.8Z" fill="#9D7230"/>
</svg>
